<?xml version="1.0" encoding="iso-8859-1"?>
<!-- Generator: Adobe Illustrator 19.0.0, SVG Export Plug-In . SVG Version: 6.00 Build 0)  -->
<svg version="1.1" id="Layer_1" xmlns="http://www.w3.org/2000/svg" xmlns:xlink="http://www.w3.org/1999/xlink" x="0px" y="0px"
	 viewBox="0 0 512 512" style="enable-background:new 0 0 512 512;" xml:space="preserve">
<g>
	<g>
		<path d="M332.96,188.125c-37.426,0-67.875,30.448-67.875,67.875s30.449,67.875,67.875,67.875
			c37.426,0,67.875-30.448,67.875-67.875S370.387,188.125,332.96,188.125z M332.96,307.841c-28.585,0-51.841-23.256-51.841-51.841
			s23.256-51.841,51.841-51.841c28.585,0,51.841,23.256,51.841,51.841C384.802,284.585,361.546,307.841,332.96,307.841z"/>
	</g>
</g>
<g>
	<g>
		<path d="M444.123,230.883h-3.517c-2.733-11.833-7.34-22.971-13.755-33.251l2.473-2.473c6.459-6.459,6.459-16.97,0-23.43
			l-12.093-12.093c-6.459-6.46-16.971-6.46-23.43,0l-2.473,2.473c-10.281-6.414-21.418-11.021-33.251-13.755v-3.517
			c0.002-9.138-7.43-16.57-16.566-16.57h-17.102c-9.136,0-16.568,7.432-16.568,16.568v3.517
			c-11.833,2.733-22.971,7.34-33.251,13.755l-2.473-2.473c-6.459-6.46-16.971-6.46-23.43,0l-12.093,12.094
			c-6.459,6.459-6.459,16.97,0,23.43l2.473,2.473c-6.414,10.281-11.021,21.419-13.755,33.251h-3.517
			c-9.136,0-16.568,7.432-16.568,16.568v17.102c0,9.136,7.432,16.568,16.568,16.568h3.517c2.733,11.832,7.34,22.971,13.755,33.25
			l-2.474,2.474c-6.458,6.459-6.458,16.97,0,23.43l12.092,12.092c3.13,3.13,7.29,4.854,11.715,4.854s8.586-1.723,11.715-4.853
			l2.473-2.473c10.282,6.414,21.42,11.022,33.251,13.756v3.517c0,9.136,7.432,16.568,16.568,16.568h17.102
			c9.136,0,16.568-7.432,16.568-16.568v-3.517c11.832-2.733,22.969-7.341,33.251-13.756l2.473,2.473
			c3.13,3.13,7.29,4.854,11.715,4.854c4.425,0,8.586-1.723,11.715-4.853l12.093-12.093c6.458-6.459,6.458-16.97,0-23.43
			l-2.473-2.473c6.414-10.281,11.022-21.418,13.755-33.25h3.517c9.136,0,16.568-7.432,16.568-16.568v-17.102
			C460.691,238.315,453.259,230.883,444.123,230.883z M444.66,264.55c0,0.295-0.239,0.534-0.534,0.534h-10.089
			c-3.914,0-7.257,2.827-7.906,6.687c-2.385,14.182-7.809,27.294-16.122,38.97c-2.27,3.189-1.906,7.55,0.863,10.318l7.12,7.12
			c0.208,0.208,0.208,0.548,0,0.757l-12.093,12.094c-0.038,0.038-0.156,0.156-0.377,0.156s-0.339-0.118-0.378-0.156l-7.12-7.12
			c-2.766-2.767-7.13-3.132-10.318-0.863c-11.678,8.313-24.789,13.737-38.97,16.122c-3.86,0.649-6.687,3.991-6.687,7.906v10.089
			c0,0.295-0.239,0.534-0.534,0.534H324.41c-0.295,0-0.534-0.239-0.534-0.534v-10.089c0-3.914-2.827-7.257-6.687-7.906
			c-14.182-2.385-27.293-7.809-38.97-16.122c-1.401-0.997-3.028-1.486-4.646-1.486c-2.066,0-4.12,0.796-5.672,2.348l-7.121,7.121
			c-0.039,0.039-0.156,0.156-0.377,0.156s-0.339-0.118-0.378-0.156l-12.092-12.092c-0.208-0.208-0.208-0.548,0-0.757l7.12-7.12
			c2.767-2.767,3.132-7.13,0.863-10.318c-8.313-11.676-13.737-24.788-16.122-38.97c-0.649-3.86-3.991-6.687-7.906-6.687h-10.091
			c-0.295,0-0.534-0.239-0.534-0.534V247.45c0-0.295,0.239-0.534,0.534-0.534h10.089c3.914,0,7.257-2.827,7.906-6.687
			c2.385-14.183,7.809-27.294,16.122-38.97c2.27-3.189,1.906-7.55-0.863-10.318l-7.12-7.12c-0.208-0.208-0.208-0.547,0-0.756
			l12.093-12.093c0.208-0.207,0.547-0.207,0.756,0l7.12,7.12c2.766,2.767,7.13,3.131,10.318,0.863
			c11.676-8.313,24.788-13.737,38.97-16.122c3.86-0.649,6.687-3.991,6.687-7.906v-10.091c0-0.295,0.239-0.534,0.534-0.534h17.102
			c0.295,0,0.534,0.239,0.534,0.534v10.089c0,3.914,2.827,7.257,6.687,7.906c14.184,2.385,27.296,7.809,38.972,16.122
			c3.188,2.27,7.55,1.906,10.318-0.863l7.12-7.12c0.208-0.207,0.547-0.207,0.756,0l12.093,12.093c0.208,0.208,0.208,0.547,0,0.756
			l-7.12,7.12c-2.767,2.767-3.132,7.13-0.863,10.318c8.313,11.676,13.737,24.788,16.122,38.97c0.649,3.86,3.991,6.687,7.906,6.687
			h10.089c0.295,0,0.534,0.239,0.534,0.534V264.55z"/>
	</g>
</g>
<g>
	<g>
		<path d="M332.96,76.96H8.017C3.589,76.96,0,80.55,0,84.977s3.589,8.017,8.017,8.017H332.96
			c89.882,0,163.006,73.124,163.006,163.006S422.843,419.006,332.96,419.006c-80.55,0-147.804-58.285-160.751-135.821l7.115,9.51
			c2.652,3.544,7.676,4.268,11.222,1.616c3.544-2.652,4.269-7.677,1.616-11.222l-24.057-32.153
			c-1.669-2.229-4.372-3.429-7.147-3.181c-2.774,0.253-5.216,1.926-6.454,4.421l-17.846,35.974
			c-1.968,3.966-0.347,8.777,3.619,10.745c1.145,0.568,2.36,0.837,3.556,0.837c2.95,0,5.788-1.634,7.188-4.455l5.204-10.491
			c13.78,85.699,87.894,150.255,176.733,150.255C431.683,435.04,512,354.723,512,256S431.683,76.96,332.96,76.96z"/>
	</g>
</g>
<g>
	<g>
		<path d="M264.551,111.165h-68.409c-4.427,0-8.017,3.589-8.017,8.017s3.589,8.017,8.017,8.017h68.409
			c4.427,0,8.017-3.589,8.017-8.017S268.979,111.165,264.551,111.165z"/>
	</g>
</g>
<g>
	<g>
		<path d="M161.936,111.165H8.017c-4.427,0-8.017,3.589-8.017,8.017s3.589,8.017,8.017,8.017h153.92
			c4.427,0,8.017-3.589,8.017-8.017S166.364,111.165,161.936,111.165z"/>
	</g>
</g>
<g>
	<g>
		<path d="M204.693,145.37h-42.756c-4.427,0-8.017,3.589-8.017,8.017s3.589,8.017,8.017,8.017h42.756
			c4.427,0,8.017-3.589,8.017-8.017S209.12,145.37,204.693,145.37z"/>
	</g>
</g>
<g>
	<g>
		<path d="M127.733,145.37H8.017c-4.427,0-8.017,3.589-8.017,8.017s3.589,8.017,8.017,8.017h119.716
			c4.427,0,8.017-3.589,8.017-8.017S132.16,145.37,127.733,145.37z"/>
	</g>
</g>
<g>
	<g>
		<path d="M153.386,179.574h-34.205c-4.427,0-8.017,3.589-8.017,8.017s3.589,8.017,8.017,8.017h34.205
			c4.427,0,8.017-3.589,8.017-8.017S157.814,179.574,153.386,179.574z"/>
	</g>
</g>
<g>
	<g>
		<path d="M84.977,179.574H8.017c-4.427,0-8.017,3.589-8.017,8.017s3.589,8.017,8.017,8.017h76.96c4.427,0,8.017-3.589,8.017-8.017
			S89.404,179.574,84.977,179.574z"/>
	</g>
</g>
<g>
	<g>
		<path d="M110.63,213.779H93.528c-4.427,0-8.017,3.589-8.017,8.017s3.589,8.017,8.017,8.017h17.102
			c4.427,0,8.017-3.589,8.017-8.017S115.058,213.779,110.63,213.779z"/>
	</g>
</g>
<g>
	<g>
		<path d="M59.324,213.779H8.017c-4.427,0-8.017,3.589-8.017,8.017s3.589,8.017,8.017,8.017h51.307c4.427,0,8.017-3.589,8.017-8.017
			S63.752,213.779,59.324,213.779z"/>
	</g>
</g>
<g>
</g>
<g>
</g>
<g>
</g>
<g>
</g>
<g>
</g>
<g>
</g>
<g>
</g>
<g>
</g>
<g>
</g>
<g>
</g>
<g>
</g>
<g>
</g>
<g>
</g>
<g>
</g>
<g>
</g>
</svg>
