<?xml version="1.0" encoding="iso-8859-1"?>
<!-- Generator: Adobe Illustrator 18.0.0, SVG Export Plug-In . SVG Version: 6.00 Build 0)  -->
<!DOCTYPE svg PUBLIC "-//W3C//DTD SVG 1.1//EN" "http://www.w3.org/Graphics/SVG/1.1/DTD/svg11.dtd">
<svg version="1.1" id="Capa_1" xmlns="http://www.w3.org/2000/svg" xmlns:xlink="http://www.w3.org/1999/xlink" x="0px" y="0px"
	 viewBox="0 0 491.458 491.458" style="enable-background:new 0 0 491.458 491.458;" xml:space="preserve">
<g>
	<path d="M303.405,307.797h19.808c-1.205-0.893-14.179-6.337-26.759-10.104c-11.483-3.438-45.948-13.699-45.948-13.699
		c-18.432,21.926-41.656,37.056-67.914,37.056c-26.259,0-49.484-15.13-67.915-37.056L52.01,302.675
		c-16.305,4.864-26.048,21.535-22.279,38.128l7.938,34.954c15.364,67.672,75.522,115.702,144.922,115.702
		c29.667,0,57.601-8.829,81.113-24.163c0-0.079-0.024-0.149-0.024-0.227V347.522C263.68,325.618,281.502,307.797,303.405,307.797z"
		/>
	<path d="M444.762,324.655v-30.231c0-40.607-33.03-73.637-73.631-73.637c-0.016,0-0.022,0-0.022,0
		c-30.176,0-57.773,18.9-68.673,47.027c-3.19,8.249,0.907,17.523,9.149,20.723c1.907,0.735,3.863,1.086,5.786,1.086
		c6.428,0,12.473-3.893,14.936-10.235c6.247-16.148,21.48-26.572,38.809-26.572c0,0,0,0,0.008,0
		c22.943,0,41.609,18.665,41.609,41.608v29.387H303.405c-13.09,0-23.709,10.619-23.709,23.71v119.547
		c0,13.09,10.619,23.71,23.709,23.71h135.423c13.09,0,23.708-10.62,23.708-23.71V347.522
		C462.536,336.495,454.967,327.299,444.762,324.655z M387.13,416.851v27.142c0,8.844-7.17,16.015-16.015,16.015
		c-8.844,0-16.015-7.171-16.015-16.015v-27.149c-8.477-5.341-14.146-14.718-14.146-25.47c0-16.664,13.506-30.167,30.169-30.167
		c16.657,0,30.161,13.503,30.161,30.167C401.284,402.133,395.607,411.51,387.13,416.851z"/>
	<g>
		<path d="M291.46,178.033c-2.224-6.445-5.969-12.555-11.92-13.386c-1.29-0.18-2.847,0.263-3.833,0.263
			c-1.49,0-4.915-1.849-5.799-2.51c-19.727-14.906-53.009-24.903-88.482-24.903c-35.473,0-68.714,9.997-88.441,24.903
			c-0.885,0.661-4.31,2.51-5.8,2.51c-0.985,0-2.543-0.443-3.833-0.263c-5.951,0.831-9.696,6.94-11.92,13.386
			c-2.74,7.911-2.731,18.104,0.853,28.396c1.888,5.426,4.597,10.152,7.712,14.159c6.168,7.919,14.104,12.709,21.673,12.565
			c16.662,38.215,46.3,71.577,79.775,71.577c33.475,0,63.113-33.361,79.775-71.577c7.57,0.144,15.505-4.646,21.674-12.565
			c3.115-4.007,5.824-8.733,7.712-14.159C294.191,196.137,294.199,185.944,291.46,178.033z"/>
	</g>
	<path d="M114.777,137.549l4.055-36.055l6.909,32.5c16.716-4.828,35.894-7.609,56.34-7.609c10.868,0,21.337,0.837,31.314,2.295
		l9.704-47.64l3.721,50.054c20.923,4.558,38.835,12.127,51.576,21.752c1.513-6.844,2.358-13.927,2.358-21.234
		c0-34.748-17.992-65.248-45.145-82.825c0.094-1.1,0.382-2.135,0.382-3.251c0-4.008-0.796-7.84-1.936-11.554
		C228.071,14.47,207.569,0,182.957,0c-24.165,0-44.333,13.968-50.715,32.955c-1.362,4.024-2.31,8.19-2.31,12.581
		c0,0.773,0.215,1.49,0.263,2.247c-28.054,17.41-46.795,48.389-46.795,83.829c0,7.307,0.854,14.39,2.367,21.234
		C93.638,146.895,103.478,141.716,114.777,137.549z"/>
</g>
<g>
</g>
<g>
</g>
<g>
</g>
<g>
</g>
<g>
</g>
<g>
</g>
<g>
</g>
<g>
</g>
<g>
</g>
<g>
</g>
<g>
</g>
<g>
</g>
<g>
</g>
<g>
</g>
<g>
</g>
</svg>
